<svg xmlns="http://www.w3.org/2000/svg">
    <defs>
        <symbol viewBox="0 0 16 13" id="map_point">
            <path d="M10.3 5.9C11.5 7.3 6.7 7.7 6 7.5c-1.1-.2-1-.4-.3-1.3l1.5-.9c.2 0 3.2-.5 2.6-1-2.4-1.8-5.4 1.7-3 3.5 3.8 3 8.3-2.6 4.8-6-3.5-3.3-9.7 0-11 4-1.3 5 4 6.8 7.8 6.3 2.2-.4 4.4-1 5.7-2.9 1.3-1.8 1.4-4.2 0-6-1.8-2.2-5.7.4-3.8 2.7Z" fill="currentColor"/>
        </symbol>
        <symbol viewBox="0 0 8 14" id="icon_arrow">
            <path d="M8 7.4c0 .2-.1.5-.3.7L2 13.6c-.5.4-1.2.4-1.7 0a1 1 0 0 1 0-1.6l5-4.6-5-4.7A1 1 0 0 1 .3 1C.8.7 1.5.7 2 1.1l5.7 5.5c.2.2.3.5.3.8Z" fill="currentColor"/>
        </symbol>
        <symbol viewBox="0 0 60 32" id="icon_gq">
            <path d="M55.7 25.4s2.9-3.9 3-9c0-9.8-7-16.2-16.5-16.3a16 16 0 0 0-13 6.8l-.4-.5A15.6 15.6 0 0 0 15.9 0 16 16 0 0 0 .7 11.3v.2A15.9 15.9 0 0 0 .4 20 16 16 0 0 0 9 30.3h.1v.1A16 16 0 0 0 29 25.3l.2-.3c2.8 4 7.4 7 13.2 7 3.8 0 6.5-1.6 7-1.9l1 1.3H60l-4.3-6ZM16 23c-3.4 0-7.2-2.7-7.3-7-.1-4.5 3.8-7.5 7.3-7.4 3 .1 4 1 5.6 2.6H27l-.6 2.1h-9.1V21h4c0 .2-2 2.2-5.2 2.2Zm33.7-5-.8-1H39l4 5.8a7 7 0 0 1-8-6.8c0-4.2 3.4-7.4 7.4-7.3 4.4 0 8.8 4.8 7.3 9.4Z" fill="currentColor"/>
        </symbol>
        <symbol viewBox="0 0 211 31" id="icon__binance">
            <path d="M49 14.8c1.3.6 2.4 1.4 2.7 3 .6 3-1.1 5.3-4.5 5.6-3.4.2-6.4 0-9.7 0V6.6h8.9c3.4.3 5.3 3.1 4.2 6-.3.8-1 1.4-1.5 2.2ZM41.3 20h5.2c1 0 1.6-.7 1.6-1.7 0-1.1-.6-1.6-1.5-1.7h-5.3V20Zm0-6.6c1.5 0 3 0 4.3-.2 1-.1 1.6-.6 1.6-1.6s-.7-1.6-1.6-1.7h-4.3v3.5ZM117.6 23.4c-2 .4-3.4.2-4.6-1.7-1.6-2.5-3.6-4.8-5.4-7.2l-1.1-1.4v10.3h-3.8V6.6h3c.3 0 .8.5 1 .8l6.1 8 1 1.2V6.7h3.8v16.7ZM79.4 23.5h-2.3c-.7-.1-1-.3-1.4-.7a681 681 0 0 1-6.6-8.7l-.9-1v10.3h-3.6V6.8c2.4-.6 3.2-.3 4.7 1.6l6.4 8.4v-10h3.7v16.7ZM139.8 23.4V6.7h12.6v3.2h-8.8v3.4h7.7v3.4h-7.7V20h8.9v3.3h-12.7ZM177.8 23.2c-1.7.4-2.8 0-3.8-1.4a122 122 0 0 0-7.8-9.8v11.3h-3V6.7c2.2-.5 2.6-.4 3.9 1.3l7.7 9.9V6.6h3v16.6ZM100 23.5h-3.3c-.4 0-.9-.5-1-.8-.5-2.6-2-3.4-4.5-3H91c-2.5-.4-4.3.2-4.8 3.1a1 1 0 0 1-.8.7H82l5.7-13.2.7-1.7c.9-2 1.9-2.6 4-2a1.2 1.2 0 0 1 .7.6l7 16.3ZM89 16.3H93L91 11.1l-2.1 5.2ZM136.6 20.8a9 9 0 0 1-12.6.7 9 9 0 0 1-.3-12.7 9.2 9.2 0 0 1 13 .2l-2.4 2.7c-1.5-1.3-3.2-2.3-5.1-1.8-1.1.3-2.1.9-2.9 1.7-1.8 2-1.6 5.3.2 7.2 1.7 2 4.6 2 7.8-.3l2.3 2.3ZM15.1 23.3l5.7-5.8 3.5 3.7-9 9L6 20.9l3.4-3.3 5.7 5.7ZM15.4 6.7l-6 6L6 9l9-9 9.3 9.2-3.3 3.4-5.6-5.9ZM193.4 16.6H185v6.7h-2.9V6.6h12.3v2.6H185v4.5h8.3v2.9ZM210 9.3H205v14h-3V9.3h-5.3V6.6H210v2.7ZM59.5 23.5h-3.6V6.7h3.6v16.8ZM3.1 18.3 0 15.2l3.4-3.4L6.7 15l-3.6 3.3ZM27.2 11.9l3.2 3.2-3.4 3-3-3 3.2-3.2Z" fill="#fff"/><path d="M15.2 18.4 11.8 15l3.4-3.3 3.4 3.4-3.4 3.3Z" fill="#currentColor"/>
        </symbol>
    </defs>
</svg>
