<svg width="60" height="32" fill="none" xmlns="http://www.w3.org/2000/svg"><path d="M55.7 25.4s2.9-3.9 3-9c0-9.8-7-16.2-16.5-16.3a16 16 0 0 0-13 6.8l-.4-.5A15.6 15.6 0 0 0 15.9 0 16 16 0 0 0 .7 11.3v.2A15.9 15.9 0 0 0 .4 20 16 16 0 0 0 9 30.3h.1v.1A16 16 0 0 0 29 25.3l.2-.3c2.8 4 7.4 7 13.2 7 3.8 0 6.5-1.6 7-1.9l1 1.3H60l-4.3-6ZM16 23c-3.4 0-7.2-2.7-7.3-7-.1-4.5 3.8-7.5 7.3-7.4 3 .1 4 1 5.6 2.6H27l-.6 2.1h-9.1V21h4c0 .2-2 2.2-5.2 2.2Zm33.7-5-.8-1H39l4 5.8a7 7 0 0 1-8-6.8c0-4.2 3.4-7.4 7.4-7.3 4.4 0 8.8 4.8 7.3 9.4Z" fill="#fff"/></svg>
